<mxfile host="65bd71144e">
    <diagram id="iDRyBTbzoGWimPGF5ylQ" name="Page-1">
        <mxGraphModel dx="1083" dy="1288" grid="1" gridSize="10" guides="1" tooltips="1" connect="1" arrows="1" fold="1" page="1" pageScale="1" pageWidth="1654" pageHeight="1169" background="none" math="0" shadow="0">
            <root>
                <mxCell id="0"/>
                <mxCell id="1" parent="0"/>
                <mxCell id="63" style="edgeStyle=none;html=1;entryX=0.5;entryY=0;entryDx=0;entryDy=0;fontColor=#FEE1BB;fillColor=none;strokeColor=#FEE1BB;" parent="1" source="64" target="66" edge="1">
                    <mxGeometry relative="1" as="geometry"/>
                </mxCell>
                <mxCell id="64" value="" style="ellipse;fillColor=none;strokeColor=#FEE1BB;" parent="1" vertex="1">
                    <mxGeometry x="345" y="30" width="30" height="30" as="geometry"/>
                </mxCell>
                <mxCell id="65" style="edgeStyle=none;html=1;entryX=0.5;entryY=0;entryDx=0;entryDy=0;fontColor=#FEE1BB;fillColor=none;strokeColor=#FEE1BB;" parent="1" source="66" edge="1">
                    <mxGeometry relative="1" as="geometry">
                        <mxPoint x="360" y="230" as="targetPoint"/>
                    </mxGeometry>
                </mxCell>
                <mxCell id="66" value="&lt;font color=&quot;#fee1bb&quot;&gt;Input task&lt;/font&gt;" style="html=1;align=center;verticalAlign=top;rounded=1;absoluteArcSize=1;arcSize=10;dashed=0;fillColor=none;strokeColor=#FEE1BB;" parent="1" vertex="1">
                    <mxGeometry x="290" y="120" width="140" height="40" as="geometry"/>
                </mxCell>
                <mxCell id="67" style="edgeStyle=none;html=1;entryX=0.5;entryY=0;entryDx=0;entryDy=0;fontColor=#FEE1BB;fillColor=none;strokeColor=#FEE1BB;" parent="1" source="68" target="81" edge="1">
                    <mxGeometry relative="1" as="geometry"/>
                </mxCell>
                <mxCell id="68" value="&lt;font color=&quot;#fee1bb&quot;&gt;Add&lt;/font&gt;" style="html=1;align=center;verticalAlign=top;rounded=1;absoluteArcSize=1;arcSize=10;dashed=0;fillColor=none;strokeColor=#FEE1BB;" parent="1" vertex="1">
                    <mxGeometry x="190" y="400" width="90" height="40" as="geometry"/>
                </mxCell>
                <mxCell id="69" style="edgeStyle=none;html=1;exitX=0.5;exitY=1;exitDx=0;exitDy=0;entryX=0.5;entryY=0;entryDx=0;entryDy=0;fontColor=#FEE1BB;fillColor=none;strokeColor=#FEE1BB;" parent="1" source="70" target="83" edge="1">
                    <mxGeometry relative="1" as="geometry"/>
                </mxCell>
                <mxCell id="70" value="&lt;font color=&quot;#ffe6cc&quot;&gt;Delete&lt;/font&gt;" style="html=1;align=center;verticalAlign=top;rounded=1;absoluteArcSize=1;arcSize=10;dashed=0;fillColor=none;strokeColor=#FEE1BB;" parent="1" vertex="1">
                    <mxGeometry x="315" y="400" width="90" height="40" as="geometry"/>
                </mxCell>
                <mxCell id="71" style="edgeStyle=none;html=1;exitX=0.5;exitY=1;exitDx=0;exitDy=0;entryX=0.629;entryY=0;entryDx=0;entryDy=0;entryPerimeter=0;fontColor=#FEE1BB;fillColor=none;strokeColor=#FEE1BB;" parent="1" source="72" target="83" edge="1">
                    <mxGeometry relative="1" as="geometry"/>
                </mxCell>
                <mxCell id="72" value="&lt;font color=&quot;#ffe6cc&quot;&gt;Marked as &lt;br&gt;&quot;done&quot;&lt;/font&gt;" style="html=1;align=center;verticalAlign=top;rounded=1;absoluteArcSize=1;arcSize=10;dashed=0;fillColor=none;strokeColor=#FEE1BB;" parent="1" vertex="1">
                    <mxGeometry x="430" y="400" width="90" height="40" as="geometry"/>
                </mxCell>
                <mxCell id="73" style="edgeStyle=none;html=1;entryX=0.5;entryY=0;entryDx=0;entryDy=0;fontColor=#FEE1BB;fillColor=none;strokeColor=#FEE1BB;" parent="1" source="74" target="79" edge="1">
                    <mxGeometry relative="1" as="geometry"/>
                </mxCell>
                <mxCell id="74" value="&lt;font color=&quot;#fee1bb&quot;&gt;Display tasks&lt;/font&gt;" style="html=1;align=center;verticalAlign=top;rounded=1;absoluteArcSize=1;arcSize=10;dashed=0;fillColor=none;strokeColor=#FEE1BB;" parent="1" vertex="1">
                    <mxGeometry x="290" y="230" width="140" height="40" as="geometry"/>
                </mxCell>
                <mxCell id="75" style="edgeStyle=none;html=1;entryX=0.5;entryY=0;entryDx=0;entryDy=0;fontColor=#FEE1BB;fillColor=none;strokeColor=#FEE1BB;" parent="1" source="79" target="70" edge="1">
                    <mxGeometry relative="1" as="geometry"/>
                </mxCell>
                <mxCell id="76" style="edgeStyle=none;html=1;exitX=0;exitY=0.5;exitDx=0;exitDy=0;entryX=0.5;entryY=0;entryDx=0;entryDy=0;fontColor=#FEE1BB;fillColor=none;strokeColor=#FEE1BB;" parent="1" source="79" target="68" edge="1">
                    <mxGeometry relative="1" as="geometry"/>
                </mxCell>
                <mxCell id="77" style="edgeStyle=none;html=1;exitX=1;exitY=0.5;exitDx=0;exitDy=0;entryX=0.5;entryY=0;entryDx=0;entryDy=0;fontColor=#FEE1BB;fillColor=none;strokeColor=#FEE1BB;" parent="1" source="79" target="72" edge="1">
                    <mxGeometry relative="1" as="geometry"/>
                </mxCell>
                <mxCell id="78" style="edgeStyle=none;html=1;entryX=0.5;entryY=0;entryDx=0;entryDy=0;dashed=1;fontColor=#FEE1BB;fillColor=none;strokeColor=#FEE1BB;" parent="1" source="79" target="88" edge="1">
                    <mxGeometry relative="1" as="geometry">
                        <Array as="points">
                            <mxPoint x="665" y="340"/>
                        </Array>
                    </mxGeometry>
                </mxCell>
                <mxCell id="79" value="&lt;font color=&quot;#fee1bb&quot;&gt;Options&lt;/font&gt;" style="html=1;align=center;verticalAlign=top;rounded=1;absoluteArcSize=1;arcSize=10;dashed=0;fillColor=none;strokeColor=#FEE1BB;" parent="1" vertex="1">
                    <mxGeometry x="290" y="320" width="140" height="40" as="geometry"/>
                </mxCell>
                <mxCell id="80" style="edgeStyle=none;html=1;entryX=0.5;entryY=0;entryDx=0;entryDy=0;endArrow=none;endFill=0;exitX=1;exitY=0.5;exitDx=0;exitDy=0;fontColor=#FEE1BB;fillColor=none;strokeColor=#FEE1BB;" parent="1" source="81" target="98" edge="1">
                    <mxGeometry relative="1" as="geometry">
                        <mxPoint x="310" y="500" as="sourcePoint"/>
                    </mxGeometry>
                </mxCell>
                <mxCell id="81" value="&lt;font color=&quot;#fee1bb&quot;&gt;Input task&lt;/font&gt;" style="html=1;align=center;verticalAlign=top;rounded=1;absoluteArcSize=1;arcSize=10;dashed=0;fillColor=none;strokeColor=#FEE1BB;" parent="1" vertex="1">
                    <mxGeometry x="165" y="480" width="140" height="40" as="geometry"/>
                </mxCell>
                <mxCell id="82" style="edgeStyle=none;html=1;endArrow=none;endFill=0;exitX=0;exitY=0.5;exitDx=0;exitDy=0;entryX=0.5;entryY=0;entryDx=0;entryDy=0;fontColor=#FEE1BB;fillColor=none;strokeColor=#FEE1BB;" parent="1" source="83" target="98" edge="1">
                    <mxGeometry relative="1" as="geometry">
                        <mxPoint x="329.9999999999999" y="540" as="targetPoint"/>
                    </mxGeometry>
                </mxCell>
                <mxCell id="83" value="&lt;font color=&quot;#fee1bb&quot;&gt;Select task&lt;/font&gt;" style="html=1;align=center;verticalAlign=top;rounded=1;absoluteArcSize=1;arcSize=10;dashed=0;fillColor=none;strokeColor=#FEE1BB;" parent="1" vertex="1">
                    <mxGeometry x="360" y="480" width="140" height="40" as="geometry"/>
                </mxCell>
                <mxCell id="84" value="" style="ellipse;html=1;shape=endState;fillColor=strokeColor;strokeColor=#FEE1BB;fontColor=#FEE1BB;" parent="1" vertex="1">
                    <mxGeometry x="345" y="680" width="30" height="30" as="geometry"/>
                </mxCell>
                <mxCell id="85" style="edgeStyle=none;html=1;entryX=0.433;entryY=-0.017;entryDx=0;entryDy=0;dashed=1;entryPerimeter=0;fontColor=#FEE1BB;fillColor=none;strokeColor=#FEE1BB;" parent="1" source="88" target="90" edge="1">
                    <mxGeometry relative="1" as="geometry">
                        <Array as="points">
                            <mxPoint x="570" y="420"/>
                        </Array>
                    </mxGeometry>
                </mxCell>
                <mxCell id="86" style="edgeStyle=none;html=1;entryX=0.5;entryY=0;entryDx=0;entryDy=0;dashed=1;fontColor=#FEE1BB;fillColor=none;strokeColor=#FEE1BB;" parent="1" source="88" target="92" edge="1">
                    <mxGeometry relative="1" as="geometry"/>
                </mxCell>
                <mxCell id="87" style="edgeStyle=none;html=1;entryX=0.6;entryY=0.025;entryDx=0;entryDy=0;entryPerimeter=0;dashed=1;fontColor=#FEE1BB;fillColor=none;strokeColor=#FEE1BB;" parent="1" source="88" target="94" edge="1">
                    <mxGeometry relative="1" as="geometry">
                        <Array as="points">
                            <mxPoint x="762" y="420"/>
                        </Array>
                    </mxGeometry>
                </mxCell>
                <mxCell id="88" value="&lt;font color=&quot;#fee1bb&quot;&gt;Filter&lt;/font&gt;" style="html=1;align=center;verticalAlign=top;rounded=1;absoluteArcSize=1;arcSize=10;dashed=1;fillColor=none;strokeColor=#FEE1BB;" parent="1" vertex="1">
                    <mxGeometry x="595" y="400" width="140" height="40" as="geometry"/>
                </mxCell>
                <mxCell id="89" style="edgeStyle=none;html=1;exitX=0.5;exitY=1;exitDx=0;exitDy=0;dashed=1;entryX=1;entryY=0.5;entryDx=0;entryDy=0;fontColor=#FEE1BB;fillColor=none;strokeColor=#FEE1BB;" parent="1" source="90" target="74" edge="1">
                    <mxGeometry relative="1" as="geometry">
                        <mxPoint x="580" y="590.0000000000002" as="targetPoint"/>
                        <Array as="points">
                            <mxPoint x="575" y="600"/>
                            <mxPoint x="840" y="600"/>
                            <mxPoint x="840" y="250"/>
                        </Array>
                    </mxGeometry>
                </mxCell>
                <mxCell id="90" value="&lt;font color=&quot;#fee1bb&quot;&gt;All&lt;/font&gt;" style="html=1;align=center;verticalAlign=top;rounded=1;absoluteArcSize=1;arcSize=10;dashed=1;fillColor=none;strokeColor=#FEE1BB;" parent="1" vertex="1">
                    <mxGeometry x="540" y="480" width="70" height="40" as="geometry"/>
                </mxCell>
                <mxCell id="91" style="edgeStyle=none;html=1;dashed=1;endArrow=none;endFill=0;fontColor=#FEE1BB;fillColor=none;strokeColor=#FEE1BB;" parent="1" source="92" edge="1">
                    <mxGeometry relative="1" as="geometry">
                        <mxPoint x="665" y="600" as="targetPoint"/>
                    </mxGeometry>
                </mxCell>
                <mxCell id="92" value="&lt;font color=&quot;#fee1bb&quot;&gt;Unchecked&lt;/font&gt;" style="html=1;align=center;verticalAlign=top;rounded=1;absoluteArcSize=1;arcSize=10;dashed=1;fillColor=none;strokeColor=#FEE1BB;" parent="1" vertex="1">
                    <mxGeometry x="630" y="480" width="70" height="40" as="geometry"/>
                </mxCell>
                <mxCell id="93" style="edgeStyle=none;html=1;dashed=1;endArrow=none;endFill=0;fontColor=#FEE1BB;fillColor=none;strokeColor=#FEE1BB;" parent="1" source="94" edge="1">
                    <mxGeometry relative="1" as="geometry">
                        <mxPoint x="755" y="600" as="targetPoint"/>
                    </mxGeometry>
                </mxCell>
                <mxCell id="94" value="&lt;font color=&quot;#fee1bb&quot;&gt;Checked&lt;/font&gt;" style="html=1;align=center;verticalAlign=top;rounded=1;absoluteArcSize=1;arcSize=10;dashed=1;fillColor=none;strokeColor=#FEE1BB;" parent="1" vertex="1">
                    <mxGeometry x="720" y="480" width="70" height="40" as="geometry"/>
                </mxCell>
                <mxCell id="96" style="edgeStyle=none;html=1;exitX=0;exitY=0.5;exitDx=0;exitDy=0;entryX=0;entryY=0.5;entryDx=0;entryDy=0;endArrow=none;endFill=0;strokeColor=#FEE1BB;fontColor=#FEE1BB;" parent="1" source="98" target="74" edge="1">
                    <mxGeometry relative="1" as="geometry">
                        <Array as="points">
                            <mxPoint x="80" y="580"/>
                            <mxPoint x="80" y="250"/>
                        </Array>
                    </mxGeometry>
                </mxCell>
                <mxCell id="97" style="edgeStyle=none;html=1;endArrow=none;endFill=0;exitX=1;exitY=0.5;exitDx=0;exitDy=0;strokeColor=#FEE1BB;fontColor=#FEE1BB;" parent="1" source="98" target="84" edge="1">
                    <mxGeometry relative="1" as="geometry">
                        <Array as="points">
                            <mxPoint x="420" y="580"/>
                            <mxPoint x="420" y="695"/>
                        </Array>
                    </mxGeometry>
                </mxCell>
                <mxCell id="98" value="" style="rhombus;fillColor=none;strokeColor=#FEE1BB;" parent="1" vertex="1">
                    <mxGeometry x="295" y="540" width="80" height="80" as="geometry"/>
                </mxCell>
                <mxCell id="100" value="&lt;font color=&quot;#fee1bb&quot;&gt;[Show the updated list]&lt;/font&gt;" style="text;html=1;strokeColor=none;fillColor=none;align=center;verticalAlign=middle;whiteSpace=wrap;rounded=0;" vertex="1" parent="1">
                    <mxGeometry x="130" y="550" width="140" height="30" as="geometry"/>
                </mxCell>
                <mxCell id="101" value="&lt;font color=&quot;#fee1bb&quot;&gt;[Exit]&lt;/font&gt;" style="text;html=1;strokeColor=none;fillColor=none;align=center;verticalAlign=middle;whiteSpace=wrap;rounded=0;" vertex="1" parent="1">
                    <mxGeometry x="375" y="550" width="45" height="30" as="geometry"/>
                </mxCell>
            </root>
        </mxGraphModel>
    </diagram>
</mxfile>